<svg width="67" height="86" viewBox="0 0 67 86" fill="none" xmlns="http://www.w3.org/2000/svg">
    <path d="M13.1789 48.1286C14.4389 52.5386 15.6089 54.6086 17.8589 57.0386C21.5489 60.8186 26.4989 62.7086 32.7989 62.7086C40.8089 62.7086 46.9289 59.8286 50.9789 54.1586C55.3889 48.1286 57.6389 40.1186 57.6389 30.9386C57.6389 21.4886 55.2089 13.3886 50.8889 8.07859C47.1989 3.39859 41.0789 0.87859 33.8789 0.87859C20.5589 0.87859 11.8289 8.79859 11.8289 20.8586C11.8289 31.6586 19.4789 39.2186 30.3689 39.2186C36.1289 39.2186 39.7289 37.5986 43.7789 33.0086C43.4189 40.2986 43.2389 42.5486 42.5189 44.7086C41.0789 49.4786 37.8389 52.1786 33.5189 52.1786C29.4689 52.1786 26.9489 50.1986 25.5089 45.8786L13.1789 48.1286ZM34.1489 10.8686C39.0989 10.8686 43.0589 14.9186 43.0589 19.9586C43.0589 24.9986 39.0089 29.0486 33.8789 29.0486C28.9289 29.0486 25.1489 25.0886 25.1489 19.9586C25.1489 14.9186 29.1989 10.8686 34.1489 10.8686Z"
          fill="#00609C"/>
    <path d="M4.28199 75.7591C1.92999 75.7591 0.277995 77.7331 0.277995 80.5331C0.277995 81.8771 0.641995 83.0811 1.31399 83.9911C1.97199 84.8871 2.99399 85.3771 4.21199 85.3771C6.59199 85.3771 8.21599 83.4591 8.21599 80.6451C8.21599 77.6771 6.676 75.7591 4.28199 75.7591ZM4.26799 77.1171C5.68199 77.1171 6.39599 78.3211 6.39599 80.6731C6.39599 81.6111 6.256 82.3811 5.97599 82.9411C5.65399 83.5851 4.96799 84.0191 4.22599 84.0191C2.85399 84.0191 2.09799 82.8151 2.09799 80.5891C2.09799 79.5951 2.26599 78.6991 2.58799 78.0831C2.89599 77.4671 3.51199 77.1171 4.26799 77.1171ZM16.6761 75.8991H15.3461V81.9051C15.3461 82.5351 15.2201 83.0531 15.0101 83.3331C14.7441 83.6831 14.1981 83.9071 13.6241 83.9071C13.0921 83.9071 12.5881 83.7111 12.3081 83.4171C12.0281 83.1231 11.9021 82.6331 11.9021 81.9051V75.8991H10.1801V82.0171C10.1801 83.2491 10.3761 83.9071 10.9221 84.4671C11.4821 85.0551 12.3501 85.3771 13.4141 85.3771C14.4641 85.3771 15.3041 85.0691 15.8921 84.4811C16.5081 83.8651 16.6761 83.3051 16.6761 81.9051V75.8991ZM22.4206 85.2371V77.3411H24.8986V75.8991H18.1366V77.3411H20.6146V85.2371H22.4206ZM33.9402 75.7591C31.5882 75.7591 29.9362 77.7331 29.9362 80.5331C29.9362 81.8771 30.3002 83.0811 30.9722 83.9911C31.6302 84.8871 32.6522 85.3771 33.8702 85.3771C36.2502 85.3771 37.8742 83.4591 37.8742 80.6451C37.8742 77.6771 36.3342 75.7591 33.9402 75.7591ZM33.9262 77.1171C35.3402 77.1171 36.0542 78.3211 36.0542 80.6731C36.0542 81.6111 35.9142 82.3811 35.6342 82.9411C35.3122 83.5851 34.6262 84.0191 33.8842 84.0191C32.5122 84.0191 31.7562 82.8151 31.7562 80.5891C31.7562 79.5951 31.9242 78.6991 32.2462 78.0831C32.5542 77.4671 33.1702 77.1171 33.9262 77.1171ZM41.6443 85.2371V81.3031H44.9343V79.9031H41.6443V77.3411H45.8163V75.8991H39.9223V85.2371H41.6443ZM58.6017 85.2371V83.8651H55.9697V75.7171H54.8497C54.6397 76.0811 54.3597 76.3751 53.7437 76.9071C53.1977 77.3691 52.9177 77.5091 51.7277 77.9571V79.6511C52.5117 79.3431 53.3377 78.7971 54.2757 77.9571V83.8651H51.4617V85.2371H58.6017ZM63.3005 75.7591C62.2085 75.7591 61.3965 76.1791 60.6965 77.1171C60.0385 77.9851 59.7165 79.1611 59.7165 80.6311C59.7165 83.5711 61.0885 85.3771 63.3005 85.3771C64.5605 85.3771 65.5405 84.8311 66.1565 83.7391C66.6745 82.8711 66.9405 81.8071 66.9405 80.6451C66.9405 77.6211 65.5545 75.7591 63.3005 75.7591ZM63.3425 77.0051C64.1125 77.0051 64.5745 77.3691 64.8825 78.2091C65.0785 78.7551 65.2045 79.6651 65.2045 80.6311C65.2045 82.9551 64.5885 84.0611 63.3005 84.0611C62.0125 84.0611 61.4245 82.9411 61.4245 80.5191C61.4245 78.1531 62.0545 77.0051 63.3425 77.0051Z"
          fill="#00609C"/>
</svg>
